<svg width="135" height="137" viewBox="0 0 135 137" fill="none" xmlns="http://www.w3.org/2000/svg">
<mask id="mask0_150_124" style="mask-type:luminance" maskUnits="userSpaceOnUse" x="6" y="4" width="71" height="71">
<path d="M48.1493 4H34C18.536 4 6 16.536 6 32V46.1493C6 61.6133 18.536 74.1493 34 74.1493H48.1493C63.6133 74.1493 76.1493 61.6133 76.1493 46.1493V32C76.1493 16.536 63.6133 4 48.1493 4Z" fill="white"/>
</mask>
<g mask="url(#mask0_150_124)">
<path d="M24.4925 12.1071C24.8058 11.5645 25.3847 11.2302 26.0112 11.2302H56.1381C56.7645 11.2302 57.3435 11.5645 57.6568 12.1071L72.7202 38.1976C73.0333 38.7404 73.0333 39.4088 72.7202 39.9513L57.6568 66.0419C57.3435 66.5844 56.7645 66.9188 56.1381 66.9188H26.0112C25.3847 66.9188 24.8058 66.5844 24.4925 66.0419L9.42911 39.9513C9.11583 39.4088 9.11583 38.7404 9.42911 38.1976L24.4925 12.1071Z" fill="url(#paint0_linear_150_124)"/>
</g>
<mask id="mask1_150_124" style="mask-type:luminance" maskUnits="userSpaceOnUse" x="57" y="34" width="71" height="71">
<path d="M100 34.3953H85.8506C70.3867 34.3953 57.8506 46.9313 57.8506 62.3953V76.5446C57.8506 92.0086 70.3867 104.545 85.8507 104.545H100C115.464 104.545 128 92.0086 128 76.5446V62.3953C128 46.9313 115.464 34.3953 100 34.3953Z" fill="white"/>
</mask>
<g mask="url(#mask1_150_124)">
<path d="M76.3431 42.5024C76.6564 41.9597 77.2353 41.6255 77.8619 41.6255H107.989C108.615 41.6255 109.194 41.9597 109.507 42.5024L124.571 68.5929C124.884 69.1356 124.884 69.8041 124.571 70.3466L109.507 96.4372C109.194 96.9797 108.615 97.314 107.989 97.314H77.8619C77.2353 97.314 76.6564 96.9797 76.3431 96.4372L61.2798 70.3466C60.9665 69.8041 60.9665 69.1356 61.2798 68.5929L76.3431 42.5024Z" fill="url(#paint1_linear_150_124)"/>
</g>
<mask id="mask2_150_124" style="mask-type:luminance" maskUnits="userSpaceOnUse" x="6" y="63" width="71" height="71">
<path d="M48.1493 63.0024H34C18.536 63.0024 6 75.5385 6 91.0024V105.152C6 120.616 18.536 133.152 34 133.152H48.1493C63.6133 133.152 76.1493 120.616 76.1493 105.152V91.0024C76.1493 75.5385 63.6133 63.0024 48.1493 63.0024Z" fill="white"/>
</mask>
<g mask="url(#mask2_150_124)">
<path d="M24.4925 71.1095C24.8058 70.5669 25.3847 70.2327 26.0112 70.2327H56.1381C56.7645 70.2327 57.3435 70.5669 57.6568 71.1095L72.7202 97.2C73.0333 97.7428 73.0333 98.4113 72.7202 98.9538L57.6568 125.044C57.3435 125.587 56.7645 125.921 56.1381 125.921H26.0112C25.3847 125.921 24.8058 125.587 24.4925 125.044L9.42911 98.9538C9.11583 98.4113 9.11583 97.7428 9.42911 97.2L24.4925 71.1095Z" fill="url(#paint2_linear_150_124)"/>
</g>
<defs>
<linearGradient id="paint0_linear_150_124" x1="41.0746" y1="11.2302" x2="41.0746" y2="66.9188" gradientUnits="userSpaceOnUse">
<stop stop-color="#F6A192"/>
<stop offset="0.9999" stop-color="#F6C492"/>
<stop offset="1" stop-opacity="0"/>
</linearGradient>
<linearGradient id="paint1_linear_150_124" x1="92.9252" y1="41.6255" x2="92.9252" y2="97.314" gradientUnits="userSpaceOnUse">
<stop stop-color="#F6A192"/>
<stop offset="0.9999" stop-color="#F6C492"/>
<stop offset="1" stop-opacity="0"/>
</linearGradient>
<linearGradient id="paint2_linear_150_124" x1="41.0746" y1="70.2327" x2="41.0746" y2="125.921" gradientUnits="userSpaceOnUse">
<stop stop-color="#F6A192"/>
<stop offset="0.9999" stop-color="#F6C492"/>
<stop offset="1" stop-opacity="0"/>
</linearGradient>
</defs>
</svg>
