<svg width="257" height="98" viewBox="0 0 257 98" fill="none" xmlns="http://www.w3.org/2000/svg">
<path d="M86.1 61C85.14 61 84.4 60.74 83.88 60.22C83.36 59.7 83.1 58.96 83.1 58V21.7C83.1 20.74 83.36 20 83.88 19.48C84.4 18.96 85.14 18.7 86.1 18.7H108.18C108.94 18.7 109.52 18.9 109.92 19.3C110.36 19.66 110.58 20.2 110.58 20.92C110.58 21.68 110.36 22.26 109.92 22.66C109.52 23.06 108.94 23.26 108.18 23.26H88.5V37.24H106.92C107.68 37.24 108.26 37.44 108.66 37.84C109.06 38.24 109.26 38.8 109.26 39.52C109.26 40.28 109.06 40.86 108.66 41.26C108.26 41.62 107.68 41.8 106.92 41.8H88.5V56.44H108.18C108.94 56.44 109.52 56.64 109.92 57.04C110.36 57.4 110.58 57.96 110.58 58.72C110.58 59.48 110.36 60.06 109.92 60.46C109.52 60.82 108.94 61 108.18 61H86.1ZM124.496 61.42C123.696 61.42 123.076 61.18 122.636 60.7C122.196 60.22 121.976 59.58 121.976 58.78V20.92C121.976 20.08 122.196 19.44 122.636 19C123.116 18.52 123.756 18.28 124.556 18.28C125.276 18.28 125.836 18.42 126.236 18.7C126.676 18.98 127.076 19.46 127.436 20.14L143.516 50.32H141.656L157.736 20.14C158.096 19.46 158.476 18.98 158.876 18.7C159.276 18.42 159.836 18.28 160.556 18.28C161.356 18.28 161.976 18.52 162.416 19C162.856 19.44 163.076 20.08 163.076 20.92V58.78C163.076 59.58 162.856 60.22 162.416 60.7C162.016 61.18 161.396 61.42 160.556 61.42C159.716 61.42 159.076 61.18 158.636 60.7C158.236 60.22 158.036 59.58 158.036 58.78V26.44H159.356L144.956 53.38C144.636 53.9 144.296 54.3 143.936 54.58C143.616 54.82 143.156 54.94 142.556 54.94C141.996 54.94 141.516 54.8 141.116 54.52C140.756 54.24 140.436 53.86 140.156 53.38L125.576 26.38H127.016V58.78C127.016 59.58 126.796 60.22 126.356 60.7C125.956 61.18 125.336 61.42 124.496 61.42ZM179.72 61.42C178.84 61.42 178.16 61.18 177.68 60.7C177.2 60.18 176.96 59.46 176.96 58.54V21.16C176.96 20.2 177.2 19.48 177.68 19C178.16 18.52 178.84 18.28 179.72 18.28C180.64 18.28 181.34 18.52 181.82 19C182.3 19.48 182.54 20.2 182.54 21.16V58.54C182.54 59.46 182.3 60.18 181.82 60.7C181.38 61.18 180.68 61.42 179.72 61.42ZM199.083 61C198.203 61 197.503 60.74 196.983 60.22C196.503 59.7 196.263 59 196.263 58.12V21.28C196.263 20.36 196.503 19.66 196.983 19.18C197.463 18.7 198.143 18.46 199.023 18.46C199.943 18.46 200.643 18.7 201.123 19.18C201.603 19.66 201.843 20.36 201.843 21.28V56.2H220.923C221.763 56.2 222.383 56.4 222.783 56.8C223.223 57.2 223.443 57.78 223.443 58.54C223.443 59.34 223.223 59.96 222.783 60.4C222.383 60.8 221.763 61 220.923 61H199.083ZM238.603 61.42C237.723 61.42 237.043 61.18 236.563 60.7C236.083 60.18 235.843 59.44 235.843 58.48V39.1L237.043 42.82L222.163 22.18C221.763 21.62 221.563 21.04 221.563 20.44C221.603 19.8 221.843 19.28 222.283 18.88C222.723 18.48 223.323 18.28 224.083 18.28C224.683 18.28 225.223 18.42 225.703 18.7C226.183 18.98 226.643 19.44 227.083 20.08L239.443 37.12H238.063L250.423 20.08C250.863 19.4 251.303 18.94 251.743 18.7C252.183 18.42 252.743 18.28 253.423 18.28C254.143 18.28 254.703 18.48 255.103 18.88C255.543 19.24 255.763 19.72 255.763 20.32C255.803 20.92 255.583 21.54 255.103 22.18L240.223 42.82L241.423 39.1V58.48C241.423 60.44 240.483 61.42 238.603 61.42Z" fill="#D1D1D1"/>
<path d="M87.8 89.2C87 89.2 86.225 89.1333 85.475 89C84.725 88.8667 84.025 88.6667 83.375 88.4C82.7417 88.1167 82.1667 87.775 81.65 87.375C81.4833 87.2583 81.3667 87.125 81.3 86.975C81.25 86.8083 81.2417 86.6583 81.275 86.525C81.325 86.375 81.4 86.25 81.5 86.15C81.6167 86.05 81.75 86 81.9 86C82.05 85.9833 82.2083 86.0333 82.375 86.15C83.1417 86.7167 83.95 87.1333 84.8 87.4C85.6667 87.6667 86.6667 87.8 87.8 87.8C89.3833 87.8 90.5667 87.4917 91.35 86.875C92.15 86.2583 92.55 85.45 92.55 84.45C92.55 83.6167 92.2583 82.9667 91.675 82.5C91.1083 82.0333 90.1667 81.6667 88.85 81.4L86.325 80.875C84.7417 80.5583 83.5667 80.025 82.8 79.275C82.0333 78.525 81.65 77.525 81.65 76.275C81.65 75.5083 81.8 74.8167 82.1 74.2C82.4 73.5667 82.825 73.025 83.375 72.575C83.925 72.125 84.575 71.7833 85.325 71.55C86.0917 71.3 86.9333 71.175 87.85 71.175C88.9333 71.175 89.925 71.325 90.825 71.625C91.7417 71.925 92.575 72.4 93.325 73.05C93.475 73.1667 93.575 73.3083 93.625 73.475C93.675 73.625 93.675 73.775 93.625 73.925C93.575 74.0583 93.5 74.1667 93.4 74.25C93.3 74.3333 93.175 74.3833 93.025 74.4C92.875 74.4 92.7167 74.3333 92.55 74.2C91.85 73.6333 91.1167 73.225 90.35 72.975C89.6 72.7083 88.7667 72.575 87.85 72.575C86.9167 72.575 86.1 72.725 85.4 73.025C84.7167 73.325 84.1833 73.75 83.8 74.3C83.4167 74.85 83.225 75.5 83.225 76.25C83.225 77.1167 83.4917 77.8083 84.025 78.325C84.5583 78.8417 85.4167 79.2167 86.6 79.45L89.15 79.975C90.8333 80.325 92.0833 80.85 92.9 81.55C93.7167 82.2333 94.125 83.175 94.125 84.375C94.125 85.0917 93.975 85.75 93.675 86.35C93.3917 86.9333 92.975 87.4417 92.425 87.875C91.875 88.3083 91.2083 88.6417 90.425 88.875C89.6583 89.0917 88.7833 89.2 87.8 89.2ZM113.711 89.2C112.027 89.2 110.586 88.8417 109.386 88.125C108.186 87.3917 107.261 86.35 106.611 85C105.977 83.65 105.661 82.0417 105.661 80.175C105.661 78.775 105.836 77.525 106.186 76.425C106.552 75.3083 107.077 74.3667 107.761 73.6C108.461 72.8167 109.311 72.2167 110.311 71.8C111.327 71.3833 112.461 71.175 113.711 71.175C114.811 71.175 115.836 71.3333 116.786 71.65C117.736 71.9667 118.552 72.4333 119.236 73.05C119.402 73.2 119.511 73.3583 119.561 73.525C119.611 73.6917 119.611 73.85 119.561 74C119.527 74.1333 119.452 74.25 119.336 74.35C119.219 74.4333 119.077 74.475 118.911 74.475C118.761 74.4583 118.594 74.375 118.411 74.225C117.777 73.675 117.069 73.2667 116.286 73C115.519 72.7333 114.669 72.6 113.736 72.6C112.352 72.6 111.177 72.9 110.211 73.5C109.261 74.0833 108.536 74.9417 108.036 76.075C107.552 77.2083 107.311 78.575 107.311 80.175C107.311 81.7917 107.552 83.1667 108.036 84.3C108.536 85.4333 109.261 86.3 110.211 86.9C111.177 87.4833 112.352 87.775 113.736 87.775C114.652 87.775 115.502 87.6417 116.286 87.375C117.069 87.0917 117.786 86.675 118.436 86.125C118.619 85.975 118.786 85.9 118.936 85.9C119.102 85.9 119.236 85.95 119.336 86.05C119.452 86.1333 119.536 86.25 119.586 86.4C119.636 86.5333 119.636 86.675 119.586 86.825C119.552 86.975 119.461 87.1167 119.311 87.25C118.594 87.9 117.761 88.3917 116.811 88.725C115.877 89.0417 114.844 89.2 113.711 89.2ZM138.646 89.2C137.046 89.2 135.654 88.8333 134.471 88.1C133.288 87.3667 132.371 86.325 131.721 84.975C131.088 83.625 130.771 82.025 130.771 80.175C130.771 78.775 130.946 77.525 131.296 76.425C131.663 75.3083 132.188 74.3667 132.871 73.6C133.554 72.8167 134.379 72.2167 135.346 71.8C136.329 71.3833 137.429 71.175 138.646 71.175C140.279 71.175 141.688 71.5417 142.871 72.275C144.054 72.9917 144.963 74.025 145.596 75.375C146.229 76.7083 146.546 78.3 146.546 80.15C146.546 81.55 146.363 82.8083 145.996 83.925C145.629 85.0417 145.104 85.9917 144.421 86.775C143.738 87.5583 142.904 88.1583 141.921 88.575C140.954 88.9917 139.863 89.2 138.646 89.2ZM138.646 87.8C139.979 87.8 141.113 87.5 142.046 86.9C142.979 86.3 143.688 85.4333 144.171 84.3C144.671 83.1667 144.921 81.7917 144.921 80.175C144.921 77.7583 144.371 75.8917 143.271 74.575C142.188 73.2417 140.646 72.575 138.646 72.575C137.329 72.575 136.204 72.875 135.271 73.475C134.338 74.075 133.621 74.9417 133.121 76.075C132.638 77.2083 132.396 78.575 132.396 80.175C132.396 82.575 132.946 84.45 134.046 85.8C135.146 87.1333 136.679 87.8 138.646 87.8ZM160.066 89.15C159.832 89.15 159.649 89.0833 159.516 88.95C159.382 88.8 159.316 88.6 159.316 88.35V72.175C159.316 71.9083 159.382 71.7083 159.516 71.575C159.666 71.4417 159.857 71.375 160.091 71.375H165.966C167.832 71.375 169.266 71.825 170.266 72.725C171.266 73.625 171.766 74.9083 171.766 76.575C171.766 78.225 171.266 79.5083 170.266 80.425C169.266 81.325 167.832 81.775 165.966 81.775H160.841V88.35C160.841 88.6 160.774 88.8 160.641 88.95C160.524 89.0833 160.332 89.15 160.066 89.15ZM160.841 80.425H165.841C167.291 80.425 168.382 80.1 169.116 79.45C169.849 78.8 170.216 77.8417 170.216 76.575C170.216 75.3083 169.849 74.35 169.116 73.7C168.382 73.0333 167.291 72.7 165.841 72.7H160.841V80.425ZM181.384 89.15C181.167 89.15 180.992 89.1 180.859 89C180.742 88.9167 180.676 88.7917 180.659 88.625C180.659 88.4583 180.701 88.275 180.784 88.075L187.809 71.925C187.926 71.675 188.067 71.5 188.234 71.4C188.401 71.2833 188.567 71.225 188.734 71.225C188.934 71.225 189.109 71.2833 189.259 71.4C189.426 71.5 189.559 71.675 189.659 71.925L196.684 88.075C196.784 88.275 196.826 88.4583 196.809 88.625C196.809 88.7917 196.751 88.9167 196.634 89C196.534 89.1 196.376 89.15 196.159 89.15C195.926 89.15 195.734 89.0917 195.584 88.975C195.451 88.8417 195.334 88.6667 195.234 88.45L193.309 83.925L194.134 84.3H183.309L184.159 83.925L182.234 88.45C182.134 88.7 182.009 88.8833 181.859 89C181.726 89.1 181.567 89.15 181.384 89.15ZM188.709 73.275L184.459 83.275L183.884 82.975H193.559L193.034 83.275L188.759 73.275H188.709ZM209.676 89.15C209.443 89.15 209.259 89.0833 209.126 88.95C208.993 88.8 208.926 88.6 208.926 88.35V72.175C208.926 71.9083 208.993 71.7083 209.126 71.575C209.276 71.4417 209.468 71.375 209.701 71.375H215.576C217.443 71.375 218.876 71.8083 219.876 72.675C220.876 73.5417 221.376 74.775 221.376 76.375C221.376 77.4083 221.151 78.3 220.701 79.05C220.251 79.7833 219.584 80.3417 218.701 80.725C217.834 81.1083 216.793 81.3 215.576 81.3L215.851 80.975H216.201C216.834 80.975 217.384 81.1417 217.851 81.475C218.334 81.8083 218.768 82.35 219.151 83.1L221.801 88.025C221.918 88.2083 221.968 88.3917 221.951 88.575C221.951 88.7417 221.893 88.8833 221.776 89C221.659 89.1 221.509 89.15 221.326 89.15C221.109 89.15 220.926 89.1 220.776 89C220.643 88.9 220.526 88.7583 220.426 88.575L217.626 83.35C217.193 82.55 216.709 82.025 216.176 81.775C215.643 81.5083 214.926 81.375 214.026 81.375H210.451V88.35C210.451 88.6 210.384 88.8 210.251 88.95C210.134 89.0833 209.943 89.15 209.676 89.15ZM210.451 80.075H215.376C216.859 80.075 217.968 79.7667 218.701 79.15C219.451 78.5167 219.826 77.5917 219.826 76.375C219.826 75.175 219.451 74.2667 218.701 73.65C217.968 73.0167 216.859 72.7 215.376 72.7H210.451V80.075ZM241.382 89.2C239.782 89.2 238.391 88.8333 237.207 88.1C236.024 87.3667 235.107 86.325 234.457 84.975C233.824 83.625 233.507 82.025 233.507 80.175C233.507 78.775 233.682 77.525 234.032 76.425C234.399 75.3083 234.924 74.3667 235.607 73.6C236.291 72.8167 237.116 72.2167 238.082 71.8C239.066 71.3833 240.166 71.175 241.382 71.175C243.016 71.175 244.424 71.5417 245.607 72.275C246.791 72.9917 247.699 74.025 248.332 75.375C248.966 76.7083 249.282 78.3 249.282 80.15C249.282 81.55 249.099 82.8083 248.732 83.925C248.366 85.0417 247.841 85.9917 247.157 86.775C246.474 87.5583 245.641 88.1583 244.657 88.575C243.691 88.9917 242.599 89.2 241.382 89.2ZM241.382 87.8C242.716 87.8 243.849 87.5 244.782 86.9C245.716 86.3 246.424 85.4333 246.907 84.3C247.407 83.1667 247.657 81.7917 247.657 80.175C247.657 77.7583 247.107 75.8917 246.007 74.575C244.924 73.2417 243.382 72.575 241.382 72.575C240.066 72.575 238.941 72.875 238.007 73.475C237.074 74.075 236.357 74.9417 235.857 76.075C235.374 77.2083 235.132 78.575 235.132 80.175C235.132 82.575 235.682 84.45 236.782 85.8C237.882 87.1333 239.416 87.8 241.382 87.8Z" fill="#F6A192"/>
<g filter="url(#filter0_d_109_165)">
<mask id="mask0_109_165" style="mask-type:luminance" maskUnits="userSpaceOnUse" x="3" y="17" width="39" height="39">
<path d="M3 36.0104C3 46.5096 11.5112 55.0208 22.0104 55.0208C32.5096 55.0208 41.0208 46.5096 41.0208 36.0104C41.0208 25.5112 32.5096 17 22.0104 17C11.5112 17 3 25.5112 3 36.0104Z" fill="white"/>
</mask>
<g mask="url(#mask0_109_165)">
<path d="M13.0229 21.394C13.1927 21.0999 13.5065 20.9187 13.8461 20.9187H30.1748C30.5142 20.9187 30.8281 21.0999 30.9979 21.394L39.1622 35.535C39.3319 35.8291 39.3319 36.1915 39.1622 36.4855L30.9979 50.6265C30.8281 50.9206 30.5142 51.1018 30.1748 51.1018H13.8461C13.5065 51.1018 13.1927 50.9206 13.0229 50.6265L4.85857 36.4855C4.68878 36.1915 4.68878 35.8291 4.85857 35.535L13.0229 21.394Z" fill="url(#paint0_linear_109_165)"/>
</g>
<mask id="mask1_109_165" style="mask-type:luminance" maskUnits="userSpaceOnUse" x="31" y="33" width="39" height="39">
<path d="M31.1029 52.4845C31.1029 62.9837 39.6142 71.4949 50.1133 71.4949C60.6125 71.4949 69.1237 62.9837 69.1237 52.4845C69.1237 41.9854 60.6125 33.4741 50.1133 33.4741C39.6142 33.4741 31.1029 41.9854 31.1029 52.4845Z" fill="white"/>
</mask>
<g mask="url(#mask1_109_165)">
<path d="M41.1258 37.8681C41.2956 37.574 41.6094 37.3928 41.949 37.3928H58.2777C58.6172 37.3928 58.931 37.574 59.1008 37.8681L67.2652 52.0091C67.4348 52.3033 67.4348 52.6656 67.2652 52.9596L59.1008 67.1006C58.931 67.3947 58.6172 67.5759 58.2777 67.5759H41.949C41.6094 67.5759 41.2956 67.3947 41.1258 67.1006L32.9615 52.9596C32.7917 52.6656 32.7917 52.3033 32.9615 52.0091L41.1258 37.8681Z" fill="url(#paint1_linear_109_165)"/>
</g>
<mask id="mask2_109_165" style="mask-type:luminance" maskUnits="userSpaceOnUse" x="3" y="48" width="39" height="39">
<path d="M3 67.9896C3 78.4888 11.5112 87 22.0104 87C32.5096 87 41.0208 78.4888 41.0208 67.9896C41.0208 57.4905 32.5096 48.9792 22.0104 48.9792C11.5112 48.9792 3 57.4905 3 67.9896Z" fill="white"/>
</mask>
<g mask="url(#mask2_109_165)">
<path d="M13.0229 53.3732C13.1927 53.0791 13.5065 52.8979 13.8461 52.8979H30.1748C30.5142 52.8979 30.8281 53.0791 30.9979 53.3732L39.1622 67.5142C39.3319 67.8084 39.3319 68.1707 39.1622 68.4647L30.9979 82.6058C30.8281 82.8998 30.5142 83.081 30.1748 83.081H13.8461C13.5065 83.081 13.1927 82.8998 13.0229 82.6058L4.85857 68.4647C4.68878 68.1707 4.68878 67.8084 4.85857 67.5142L13.0229 53.3732Z" fill="url(#paint2_linear_109_165)"/>
</g>
</g>
<defs>
<filter id="filter0_d_109_165" x="0.731224" y="20.9187" width="70.6612" height="70.1624" filterUnits="userSpaceOnUse" color-interpolation-filters="sRGB">
<feFlood flood-opacity="0" result="BackgroundImageFix"/>
<feColorMatrix in="SourceAlpha" type="matrix" values="0 0 0 0 0 0 0 0 0 0 0 0 0 0 0 0 0 0 127 0" result="hardAlpha"/>
<feOffset dy="4"/>
<feGaussianBlur stdDeviation="2"/>
<feComposite in2="hardAlpha" operator="out"/>
<feColorMatrix type="matrix" values="0 0 0 0 0 0 0 0 0 0 0 0 0 0 0 0 0 0 0.25 0"/>
<feBlend mode="normal" in2="BackgroundImageFix" result="effect1_dropShadow_109_165"/>
<feBlend mode="normal" in="SourceGraphic" in2="effect1_dropShadow_109_165" result="shape"/>
</filter>
<linearGradient id="paint0_linear_109_165" x1="22.0104" y1="20.9187" x2="22.0104" y2="51.1018" gradientUnits="userSpaceOnUse">
<stop stop-color="#F6A192"/>
<stop offset="0.9999" stop-color="#F6C492"/>
<stop offset="1" stop-opacity="0"/>
</linearGradient>
<linearGradient id="paint1_linear_109_165" x1="50.1133" y1="37.3928" x2="50.1133" y2="67.5759" gradientUnits="userSpaceOnUse">
<stop stop-color="#F6A192"/>
<stop offset="0.9999" stop-color="#F6C492"/>
<stop offset="1" stop-opacity="0"/>
</linearGradient>
<linearGradient id="paint2_linear_109_165" x1="22.0104" y1="52.8979" x2="22.0104" y2="83.081" gradientUnits="userSpaceOnUse">
<stop stop-color="#F6A192"/>
<stop offset="0.9999" stop-color="#F6C492"/>
<stop offset="1" stop-opacity="0"/>
</linearGradient>
</defs>
</svg>
